<?xml version="1.0" standalone="no"?>
<svg xmlns:xlink="http://www.w3.org/1999/xlink" id="wave" style="transform:rotate(0deg); transition: 0.3s" viewBox="0 0 1440 180" version="1.1" xmlns="http://www.w3.org/2000/svg"><defs><linearGradient id="sw-gradient-0" x1="0" x2="0" y1="1" y2="0"><stop stop-color="rgba(170, 191, 165, 1)" offset="0%"/><stop stop-color="rgba(170, 191, 165, 1)" offset="100%"/></linearGradient></defs><path style="transform:translate(0, 0px); opacity:1" fill="url(#sw-gradient-0)" d="M0,36L40,39C80,42,160,48,240,60C320,72,400,90,480,87C560,84,640,60,720,69C800,78,880,120,960,138C1040,156,1120,150,1200,138C1280,126,1360,108,1440,84C1520,60,1600,30,1680,18C1760,6,1840,12,1920,33C2000,54,2080,90,2160,105C2240,120,2320,114,2400,96C2480,78,2560,48,2640,33C2720,18,2800,18,2880,42C2960,66,3040,114,3120,132C3200,150,3280,138,3360,120C3440,102,3520,78,3600,75C3680,72,3760,90,3840,90C3920,90,4000,72,4080,60C4160,48,4240,42,4320,45C4400,48,4480,60,4560,60C4640,60,4720,48,4800,54C4880,60,4960,84,5040,96C5120,108,5200,108,5280,99C5360,90,5440,72,5520,69C5600,66,5680,78,5720,84L5760,90L5760,180L5720,180C5680,180,5600,180,5520,180C5440,180,5360,180,5280,180C5200,180,5120,180,5040,180C4960,180,4880,180,4800,180C4720,180,4640,180,4560,180C4480,180,4400,180,4320,180C4240,180,4160,180,4080,180C4000,180,3920,180,3840,180C3760,180,3680,180,3600,180C3520,180,3440,180,3360,180C3280,180,3200,180,3120,180C3040,180,2960,180,2880,180C2800,180,2720,180,2640,180C2560,180,2480,180,2400,180C2320,180,2240,180,2160,180C2080,180,2000,180,1920,180C1840,180,1760,180,1680,180C1600,180,1520,180,1440,180C1360,180,1280,180,1200,180C1120,180,1040,180,960,180C880,180,800,180,720,180C640,180,560,180,480,180C400,180,320,180,240,180C160,180,80,180,40,180L0,180Z"/></svg>